HIERARCHY
ROOT Hips
{
  OFFSET 0 0 0
  CHANNELS 6 Xposition Yposition Zposition Zrotation Yrotation Xrotation
  JOINT LeftThigh
  {
    OFFSET 8.509551 0 -5.988202
    CHANNELS 3 Zrotation Yrotation Xrotation
    JOINT LeftLeg
    {
      OFFSET 0 0 -42.862921
      CHANNELS 3 Zrotation Yrotation Xrotation
      JOINT LeftFoot
      {
        OFFSET 0 0 -39.825843
        CHANNELS 3 Zrotation Yrotation Xrotation
        End Site
        {
          OFFSET 0 -13.487303 -5.068483
        }
      }
    }
  }
  JOINT RightThigh
  {
    OFFSET -8.509551 0 -5.988202
    CHANNELS 3 Zrotation Yrotation Xrotation
    JOINT RightLeg
    {
      OFFSET 0 0 -42.862921
      CHANNELS 3 Zrotation Yrotation Xrotation
      JOINT RightFoot
      {
        OFFSET 0 0 -39.825843
        CHANNELS 3 Zrotation Yrotation Xrotation
        End Site
        {
          OFFSET 0 -13.487303 -5.068483
        }
      }
    }
  }
  JOINT SpineLow
  {
    OFFSET 0 0 4.775281
    CHANNELS 3 Zrotation Yrotation Xrotation
    JOINT SpineMid
    {
      OFFSET 0 0 13.052753
      CHANNELS 3 Zrotation Yrotation Xrotation
      JOINT Chest
      {
        OFFSET 0 0 13.052753
        CHANNELS 3 Zrotation Yrotation Xrotation
        JOINT LeftShoulder
        {
          OFFSET 7.640449 1.432584 9.550562
          CHANNELS 3 Zrotation Yrotation Xrotation
          JOINT LeftArm
          {
            OFFSET 9.264045 0 4.297753
            CHANNELS 3 Zrotation Yrotation Xrotation
            JOINT LeftForearm
            {
              OFFSET 0 0 26.078764
              CHANNELS 3 Zrotation Yrotation Xrotation
              JOINT LeftHand
              {
                OFFSET 0 0 25.497135
                CHANNELS 3 Zrotation Yrotation Xrotation
              }
            }
          }
        }
        JOINT RightShoulder
        {
          OFFSET -7.640449 1.432584 9.550562
          CHANNELS 3 Zrotation Yrotation Xrotation
          JOINT RightArm
          {
            OFFSET -9.264045 0 4.297753
            CHANNELS 3 Zrotation Yrotation Xrotation
            JOINT RightForearm
            {
              OFFSET 0 0 -26.078764
              CHANNELS 3 Zrotation Yrotation Xrotation
              JOINT RightHand
              {
                OFFSET 0 0 -25.497135
                CHANNELS 3 Zrotation Yrotation Xrotation
              }
            }
          }
        }
        JOINT Neck
        {
          OFFSET 0 0 15.280899
          CHANNELS 3 Zrotation Yrotation Xrotation
          JOINT Head
          {
            OFFSET 0 0 11.460674
            CHANNELS 3 Zrotation Yrotation Xrotation
            End Site
            {
              OFFSET 0 0 7.325843
            }
          }
        }
      }
    }
  }
}
MOTION
Frames: 17
Frame Time: 0.01
3.401116  90.488182  -7.071634  12.130636  83.781311  -83.014045  7.819384  -16.462243  8.988507  -5.467304  3.014839  -0.558969  3.36598  5.051601  -1.184471  -7.759935  13.624317  5.63623  -0.878693  1.223408  1.388546  0.791297  -14.483797  1.131823  -0.117255  -0.034108  0.310923  -0.320938  -0.091722  0.85004  -0.320938  -0.091722  0.85004  -5.823468  10.33806  14.927777  140.529015  31.147057  176.508707  -13.606888  -6.189273  34.594093  73.825291  -15.689898  -25.938496  1.128407  -8.399548  12.468962  54.597354  40.317275  2.750171  -7.078068  14.962948  -34.260695  86.315135  -8.007185  33.664094  -0.421518  1.068115  -1.542437  -0.313436  0.802156  -1.156058  
3.41804995885917  90.499458  -7.08052073368563  12.227803  83.773294  -82.929001  7.619995  -16.377534  9.04908  -5.359713  2.987621  -0.561496  3.458203  5.02952  -1.175504  -7.765069  13.654513  5.691041  -0.940441  1.21183  1.307972  0.863457  -14.453619  1.122304  -0.11761  -0.034508  0.313644  -0.321918  -0.092796  0.857481  -0.321918  -0.092796  0.857481  -5.865684  10.347325  14.930147  140.428284  31.232062  176.49161  -13.658632  -6.187658  34.528168  73.804355  -15.683975  -25.890814  1.136095  -8.413645  12.467334  54.555539  40.376378  2.784913  -7.087835  14.948376  -34.335079  86.331669  -8.038367  33.7008  -0.449763  1.041983  -1.503937  -0.334751  0.7826  -1.127155  
3.43246353663691  90.513657  -7.13669359836179  12.193999  83.756839  -82.9587  7.355841  -16.283455  9.11291  -5.103128  2.952833  -0.542931  3.548616  5.025653  -1.166123  -7.768818  13.702267  5.673723  -1.013929  1.199589  1.319696  0.980203  -14.459051  1.059567  -0.126881  -0.032293  0.315934  -0.347232  -0.08661  0.863741  -0.347232  -0.08661  0.863741  -5.839235  10.32758  14.912376  140.422  31.317081  176.527799  -13.697397  -6.166214  34.480776  73.908743  -15.642727  -25.935659  1.163576  -8.436881  12.448957  54.599289  40.411847  2.877073  -7.078687  14.924486  -34.452722  86.271793  -8.012862  33.748516  -0.384853  1.03701  -1.472723  -0.286134  0.77869  -1.10386  
3.43400757674901  90.521317  -7.14312851551041  12.34188  83.752947  -82.819923  7.148305  -16.202717  9.177675  -5.002562  2.931463  -0.548999  3.660353  5.017455  -1.166045  -7.758609  13.724164  5.699666  -1.164227  1.203887  1.279326  1.121128  -14.422328  1.038598  -0.127143  -0.030402  0.321778  -0.347931  -0.081408  0.879704  -0.347931  -0.081408  0.879704  -5.896547  10.327162  14.878422  140.346859  31.390699  176.510732  -13.731262  -6.180549  34.422283  73.877334  -15.633331  -25.895864  1.170174  -8.4505  12.41975  54.562917  40.460281  2.913312  -7.093829  14.916572  -34.53831  86.263345  -8.030122  33.802148  -0.417442  1.006113  -1.45553  -0.310679  0.755585  -1.090933  
3.41117808033803  90.540298  -7.17521091540161  12.261107  83.709355  -82.886664  6.823511  -16.065061  9.225318  -4.657726  2.855057  -0.484613  3.760733  5.027588  -1.176639  -7.715623  13.7455  5.674726  -1.280197  1.184992  1.247252  1.243351  -14.384818  1.02273  -0.131458  -0.029238  0.324454  -0.359713  -0.078154  0.88702  -0.359713  -0.078154  0.88702  -5.903457  10.331883  14.838575  140.376092  31.471842  176.538515  -13.737833  -6.163769  34.399135  73.958978  -15.613991  -25.956656  1.209153  -8.460356  12.38692  54.626279  40.475721  3.009492  -7.135232  14.908217  -34.653055  86.205602  -7.997953  33.834054  -0.351204  0.995108  -1.439168  -0.261055  0.747163  -1.078778  
3.42088272972725  90.544426  -7.17499828593917  12.326004  83.678896  -82.818771  6.693869  -16.007136  9.270723  -4.603418  2.837012  -0.500477  3.869294  5.026824  -1.174211  -7.683673  13.755817  5.692448  -1.435739  1.190583  1.205657  1.388598  -14.333353  0.995483  -0.126803  -0.027612  0.32607  -0.346967  -0.073763  0.891422  -0.346967  -0.073763  0.891422  -5.964587  10.343714  14.816637  140.324368  31.552574  176.518289  -13.769034  -6.18049  34.357714  73.928291  -15.611716  -25.949164  1.207413  -8.470316  12.377374  54.623761  40.507958  3.047021  -7.200318  14.906972  -34.728109  86.198614  -7.998067  33.843715  -0.385512  0.963725  -1.424586  -0.286882  0.723698  -1.067807  
3.44387805173323  90.557884  -7.20497077039925  12.167432  83.608506  -82.95532  6.53208  -15.920774  9.273744  -4.364526  2.783134  -0.446175  3.946389  5.040671  -1.171957  -7.611243  13.77033  5.697273  -1.568088  1.184406  1.156192  1.489259  -14.295134  0.965606  -0.123546  -0.027256  0.32529  -0.33806  -0.072837  0.889285  -0.33806  -0.072837  0.889285  -5.946435  10.341108  14.792007  140.343009  31.629436  176.55255  -13.772677  -6.156578  34.347863  74.027371  -15.596914  -26.035132  1.240035  -8.482851  12.362771  54.701539  40.516686  3.128042  -7.279579  14.905274  -34.810776  86.136445  -7.950871  33.80759  -0.319194  0.951763  -1.411322  -0.237194  0.714564  -1.057971  
3.47012954133003  90.561943  -7.18748865265464  12.221926  83.566022  -82.894084  6.473106  -15.871447  9.300853  -4.316123  2.767926  -0.458777  4.011044  5.042582  -1.171925  -7.587446  13.769698  5.723853  -1.655319  1.196126  1.105922  1.584809  -14.241495  0.93143  -0.117935  -0.025486  0.324325  -0.322699  -0.06808  0.886632  -0.322699  -0.06808  0.886632  -5.977084  10.351665  14.7848  140.29553  31.708034  176.543179  -13.821705  -6.162749  34.318757  73.986447  -15.586374  -25.996875  1.239562  -8.489639  12.366126  54.692628  40.543681  3.14233  -7.348126  14.907354  -34.868937  86.114723  -7.931503  33.73995  -0.346673  0.92695  -1.399037  -0.257879  0.696011  -1.04873  
3.52758024499625  90.571053  -7.22020625152675  11.916085  83.476877  -83.176391  6.481877  -15.843155  9.309371  -4.166038  2.733099  -0.446663  4.033875  5.059276  -1.176178  -7.526909  13.77038  5.744823  -1.773072  1.208984  1.051214  1.72888  -14.227346  0.896111  -0.112492  -0.028291  0.320603  -0.307854  -0.075838  0.876465  -0.307854  -0.075838  0.876465  -5.955814  10.36283  14.779529  140.335811  31.783406  176.601739  -13.848767  -6.135929  34.308556  74.082541  -15.557855  -26.012353  1.246801  -8.485985  12.37371  54.79955  40.549721  3.20658  -7.417609  14.904966  -34.950665  86.040194  -7.890024  33.640742  -0.258445  0.929213  -1.38918  -0.191719  0.697502  -1.04147  
3.55657143628491  90.57473  -7.20801241290252  12.048508  83.447185  -83.037316  6.489962  -15.787774  9.328194  -4.151129  2.70386  -0.458002  4.055023  5.065694  -1.18283  -7.530697  13.78685  5.773695  -1.801877  1.211687  0.992332  1.784108  -14.185469  0.874323  -0.112143  -0.026216  0.319402  -0.306871  -0.070177  0.873172  -0.306871  -0.070177  0.873172  -5.959641  10.380981  14.776792  140.311451  31.865095  176.613467  -13.894974  -6.138391  34.285235  74.041463  -15.532692  -25.946675  1.263391  -8.481801  12.385042  54.806798  40.586822  3.214047  -7.471902  14.89796  -34.987999  86.028681  -7.873511  33.589331  -0.269788  0.915614  -1.386096  -0.200261  0.687327  -1.039146  
3.61208506262539  90.577309  -7.25554108311259  11.774374  83.362941  -83.290007  6.539381  -15.775253  9.332646  -3.996693  2.661651  -0.444305  4.026938  5.092872  -1.185542  -7.480327  13.799532  5.781542  -1.861166  1.226402  0.959741  1.825358  -14.187152  0.834912  -0.109597  -0.028775  0.3168  -0.299943  -0.077218  0.866071  -0.299943  -0.077218  0.866071  -5.915802  10.39191  14.772739  140.366938  31.947714  176.682955  -13.916122  -6.109115  34.283403  74.134253  -15.510274  -25.902611  1.285612  -8.468656  12.384852  54.94603  40.600429  3.276728  -7.512577  14.880574  -35.034087  85.965651  -7.850159  33.613457  -0.181157  0.927543  -1.388877  -0.133757  0.696073  -1.04136  
3.63853786252858  90.574768  -7.26808497284932  11.958419  83.365144  -83.102965  6.562312  -15.75392  9.343178  -4.019673  2.661122  -0.455393  4.033678  5.099467  -1.191188  -7.549871  13.846297  5.810306  -1.80415  1.213378  0.886429  1.830454  -14.171364  0.83563  -0.113057  -0.025872  0.317829  -0.309363  -0.069231  0.868874  -0.309363  -0.069231  0.868874  -5.926383  10.404482  14.771406  140.37646  32.041627  176.716008  -13.935982  -6.109133  34.273332  74.095748  -15.482445  -25.821816  1.302329  -8.468631  12.385271  54.962815  40.65043  3.283146  -7.544249  14.87237  -35.043249  85.977119  -7.845756  33.667145  -0.193496  0.918117  -1.399099  -0.143018  0.689035  -1.049011  
3.69473040545992  90.568321  -7.31812686528533  11.669543  83.309167  -83.384146  6.636789  -15.79549  9.340959  -3.87292  2.649411  -0.418289  3.965369  5.140206  -1.206521  -7.607243  13.899152  5.829481  -1.639879  1.155951  0.832476  1.803106  -14.173853  0.810722  -0.106854  -0.030241  0.320295  -0.292471  -0.081244  0.875626  -0.292471  -0.081244  0.875626  -5.939884  10.42647  14.762583  140.482971  32.148812  176.799868  -13.913548  -6.078361  34.284615  74.201353  -15.462816  -25.794109  1.286126  -8.452462  12.365358  55.095299  40.660257  3.335616  -7.573484  14.877498  -35.045193  85.901017  -7.832602  33.761096  -0.133882  0.940258  -1.420715  -0.098224  0.705509  -1.065307  
3.72742075186597  90.562332  -7.33210181853851  11.863541  83.336398  -83.203034  6.66411  -15.798754  9.357114  -3.912817  2.659296  -0.422989  3.950429  5.163942  -1.224649  -7.731078  13.965788  5.884263  -1.555499  1.115135  0.738336  1.808262  -14.145499  0.8206  -0.111924  -0.026979  0.325853  -0.306291  -0.072235  0.890809  -0.306291  -0.072235  0.890809  -5.970367  10.442711  14.751291  140.499927  32.256135  176.829755  -13.902107  -6.093143  34.274969  74.17042  -15.440939  -25.739921  1.304256  -8.459725  12.348192  55.081539  40.699413  3.326424  -7.590746  14.889006  -35.041258  85.888783  -7.830413  33.862651  -0.149794  0.933467  -1.439729  -0.110144  0.700458  -1.079544  
3.77591226316655  90.558907  -7.35673134110831  11.607549  83.308023  -83.467178  6.745892  -15.846323  9.359293  -3.817449  2.653489  -0.395394  3.885842  5.213027  -1.240817  -7.830889  14.033883  5.946708  -1.35963  0.996754  0.626298  1.698096  -14.072929  0.833573  -0.104898  -0.033097  0.331757  -0.287176  -0.089025  0.906967  -0.287176  -0.089025  0.906968  -6.020584  10.482629  14.739141  140.590326  32.375508  176.922529  -13.854635  -6.079447  34.256035  74.259004  -15.399001  -25.769042  1.258483  -8.432252  12.318764  55.190472  40.688253  3.367585  -7.668126  14.914541  -35.034223  85.828134  -7.815454  33.966312  -0.10767  0.967327  -1.461538  -0.078438  0.725758  -1.095957  
3.81616114543438  90.557472  -7.35485285672376  11.786759  83.35455  -83.292423  6.791385  -15.840182  9.353815  -3.878636  2.644335  -0.387833  3.859938  5.251096  -1.271196  -7.96437  14.085005  6.014616  -1.301077  0.956479  0.512302  1.721799  -14.037156  0.851111  -0.109414  -0.030223  0.334981  -0.299485  -0.081095  0.915773  -0.299485  -0.081095  0.915773  -6.068583  10.501132  14.735899  140.565473  32.488981  176.941468  -13.853779  -6.100123  34.223388  74.238894  -15.384667  -25.753156  1.251879  -8.437446  12.298561  55.143502  40.709613  3.345205  -7.729392  14.910682  -35.042007  85.82151  -7.818799  34.025912  -0.13019  0.960509  -1.473606  -0.095325  0.7207  -1.104974  
3.87348957761672  90.56234  -7.39935937577262  11.594916  83.361111  -83.469141  6.843766  -15.846546  9.323675  -3.774786  2.603601  -0.353065  3.777165  5.316641  -1.290167  -8.069506  14.13564  6.055266  -1.224388  0.902554  0.417298  1.755404  -14.025321  0.845262  -0.101295  -0.036679  0.335221  -0.277383  -0.098853  0.916447  -0.277383  -0.098853  0.916447  -6.148479  10.549171  14.728415  140.585752  32.610871  177.008858  -13.830023  -6.08111  34.175485  74.310964  -15.343359  -25.848557  1.188105  -8.4078  12.27274  55.168365  40.699459  3.36392  -7.817989  14.902238  -35.067206  85.761939  -7.799231  34.041472  -0.120247  1.003478  -1.489511  -0.087738  0.752907  -1.116907  
